<svg width="141" height="38" viewBox="0 0 141 38" fill="none" xmlns="http://www.w3.org/2000/svg">
<path d="M62.3543 15.5448C60.0442 14.8835 54.2053 13.1261 52.0771 11.0063C49.9671 8.90459 51.3223 5.48935 52.732 4.25733C56.8974 0.588432 64.337 3.00718 67.5111 13.8417H69.4665V1.09574H67.7112C67.7112 1.09574 66.5562 2.93471 65.874 3.33331C65.583 3.51449 64.428 2.98907 63.8641 2.70824C47.2933 -6.32358 36.1248 14.8564 50.1581 21.2158C53.1958 22.5927 54.9875 23.2631 58.489 24.3049C64.528 26.0986 65.0646 30.6371 63.0819 33.074C59.9351 36.9331 50.149 38.0655 45.256 23.7523H42.9004V33.6628H42.8823C42.855 33.6447 41.8636 33.0287 41.0906 32.3583C37.9346 29.6497 32.1048 21.2158 30.8861 19.5308H30.9134C40.6449 17.7009 41.5999 8.84118 37.1525 4.10332L30.8861 9.65649C30.968 10.7979 30.8407 12.1024 30.4132 13.579C29.3218 17.3295 25.6111 17.9817 23.2919 17.9998C22.5643 17.9998 21.6549 17.9183 21.5912 17.9092H21.573L13.3785 25.1564V36.9694H21.573V20.2917L21.6094 20.337C26.2478 26.4881 30.3677 32.5123 33.3599 36.9512H45.4834C45.4834 36.9512 46.0109 36.2356 46.6475 35.5562C47.3933 34.768 48.4574 35.2844 48.9758 35.529C51.6315 36.7701 54.0598 37.377 57.1157 37.4857C73.5046 38.0836 76.8788 19.721 62.3725 15.563L62.3543 15.5448Z" fill="#005DAA"/>
<path d="M137.623 34.0705C136.041 32.9834 135.495 31.7151 134.613 29.7584C133.904 28.2003 122.571 1.11385 122.571 1.11385H119.352C118.906 2.18282 114.622 13.7421 112.203 19.404C111.412 21.2792 109.857 24.9571 107.374 30.003C106.383 32.0684 105.118 33.3729 104.118 33.8531V7.88998C104.118 7.88998 104.045 5.63429 105.519 4.41133C106.901 3.26084 109.575 3.34237 109.575 3.34237V1.1048L95.9871 1.09574V3.34237C95.9871 3.34237 99.0521 3.2246 100.271 4.43851C101.49 5.67053 101.326 7.91716 101.326 7.91716V25.3104L83.9273 1.1048H71.6402V3.34237C74.1685 3.34237 76.7333 3.99462 76.7333 7.37362V30.311C76.7333 30.311 76.8061 32.7298 75.8511 33.5179C74.405 34.7137 71.6493 34.6503 71.6493 34.6503V36.9512H85.3825V34.6503C85.3825 34.6503 81.9901 34.7499 80.4258 33.4273C79.3344 32.5033 79.4436 30.311 79.4436 30.311V9.58402L99.8888 36.9422H115.587V34.6503C115.587 34.6503 112.176 34.7771 111.148 34.2698C110.621 34.0161 110.348 33.6538 110.148 33.1465C110.039 32.8475 110.02 32.467 110.157 31.7967C110.63 29.4504 112.631 25.084 112.631 25.084H123.635C123.635 25.084 125.7 29.8581 126.419 31.688C127.101 33.4182 126.691 34.2064 125.591 34.46C124.718 34.6684 121.853 34.6593 121.853 34.6593V36.9422H140.061V34.6412C140.061 34.6412 138.669 34.7771 137.632 34.0614L137.623 34.0705ZM113.631 22.484L118.106 11.7401L122.617 22.484H113.622H113.631Z" fill="#005DAA"/>
<path d="M133.858 4.30262H134.504L135.568 5.97853H136.223L135.104 4.25733C135.686 4.19391 136.132 3.90402 136.132 3.19742C136.132 2.45459 135.695 2.08317 134.768 2.08317H133.258V5.97853H133.867V4.30262H133.858ZM134.658 2.57235C135.077 2.57235 135.522 2.65388 135.522 3.17025C135.522 3.78626 135.022 3.81343 134.486 3.81343H133.849V2.57235H134.658Z" fill="#005DAA"/>
<path d="M134.549 7.36456C136.377 7.36456 137.905 5.93324 137.905 4.01273C137.905 2.09223 136.377 0.69714 134.549 0.69714C132.721 0.69714 131.175 2.12846 131.175 4.01273C131.175 5.897 132.712 7.36456 134.549 7.36456ZM134.549 1.19538C136.095 1.19538 137.296 2.42741 137.296 4.02179C137.296 5.61618 136.095 6.87538 134.549 6.87538C133.003 6.87538 131.784 5.64335 131.784 4.02179C131.784 2.40023 132.985 1.19538 134.549 1.19538Z" fill="#005DAA"/>
<path d="M21.573 6.27748C21.573 3.98556 24.738 3.27895 26.3114 3.45108C27.3028 3.55978 29.0763 4.65592 30.1131 6.75761L35.0425 2.40023C33.6237 1.57586 31.9139 1.06856 29.9494 1.06856C22.1005 1.06856 8.64011 1.06856 8.64011 1.06856V3.31519C8.64011 3.31519 9.09486 3.28801 9.60417 3.35143C10.5227 3.46013 11.7687 3.49637 12.6146 4.4838C12.942 4.87334 13.3967 5.79735 13.3967 7.02032C13.3967 8.24328 13.3967 15.1915 13.3967 21.56L21.5912 14.3128V6.27748H21.573Z" fill="#005DAA"/>
<path d="M13.3694 25.1383L0 36.9512H13.3694V25.1383Z" fill="#13B5EA"/>
</svg>
