<svg id="Layer_1" xmlns="http://www.w3.org/2000/svg" viewBox="0 0 335 117"><style>.st0{fill:#3EB1C8;} .st1{fill:#D8D2C4;} .st2{fill:#505959;} .st3{fill:#FDC730;} .st4{fill:#E73743;}</style><path class="st0" d="M2.6 114.5V80.8l27.7-9.1 49.1 16.8z"/><path class="st1" d="M51.6 45.6l-49 16.9 27.7 9.2 49.1-16.9z"/><path class="st2" d="M30.3 71.7l49.1-16.9v33.7z"/><path class="st3" d="M79.4 2.8v33.7l-27.8 9.1-49-16.8z"/><path class="st4" d="M51.6 45.6l-49 16.9V28.8z"/><path class="st2" d="M128.1 64.4c-.6-4.3-4.8-7.6-9.5-7.6-8.6 0-11.8 7.3-11.8 15 0 7.3 3.2 14.6 11.8 14.6 5.9 0 9.2-4 9.9-9.8h9.3c-1 10.9-8.5 17.8-19.2 17.8-13.5 0-21.4-10.1-21.4-22.7 0-12.9 7.9-23 21.4-23 9.6 0 17.7 5.6 18.8 15.7h-9.3zM141.1 61.8h8.2v5.9h.1c1.6-4 5.9-6.7 10.1-6.7.6 0 1.3.1 1.9.3v8.1c-.8-.2-2.1-.3-3.1-.3-6.4 0-8.6 4.6-8.6 10.1v14.2H141V61.8h.1zM178 61c10 0 16.4 6.6 16.4 16.7 0 10-6.4 16.6-16.4 16.6-9.9 0-16.3-6.6-16.3-16.6.1-10.2 6.4-16.7 16.3-16.7zm0 26.8c5.9 0 7.7-5.1 7.7-10.1 0-5.1-1.8-10.1-7.7-10.1s-7.6 5.1-7.6 10.1c-.1 5 1.7 10.1 7.6 10.1zM204.4 83.2c.1 3.8 3.2 5.3 6.7 5.3 2.5 0 5.7-1 5.7-4 0-2.6-3.6-3.5-9.8-4.9-5-1.1-10-2.9-10-8.4 0-8.1 7-10.1 13.7-10.1 6.9 0 13.3 2.3 13.9 10.1h-8.2c-.2-3.4-2.8-4.3-5.9-4.3-2 0-4.8.4-4.8 2.9 0 3.1 4.9 3.5 9.8 4.7 5.1 1.2 10 3 10 8.9 0 8.3-7.2 11-14.4 11-7.3 0-14.5-2.7-14.8-11.1l8.1-.1zM236.1 83.2c.1 3.8 3.2 5.3 6.7 5.3 2.5 0 5.7-1 5.7-4 0-2.6-3.6-3.5-9.8-4.9-5-1.1-10-2.9-10-8.4 0-8.1 7-10.1 13.7-10.1 6.9 0 13.3 2.3 13.9 10.1h-8.2c-.2-3.4-2.8-4.3-5.9-4.3-2 0-4.8.4-4.8 2.9 0 3.1 4.9 3.5 9.8 4.7 5.1 1.2 10 3 10 8.9 0 8.3-7.2 11-14.4 11-7.3 0-14.5-2.7-14.8-11.1l8.1-.1zM259.9 61.8h8.2v5.9h.1c1.6-4 5.9-6.7 10.1-6.7.6 0 1.3.1 1.9.3v8.1c-.8-.2-2.1-.3-3.1-.3-6.4 0-8.6 4.6-8.6 10.1v14.2h-8.6V61.8zM289.8 79.8c.2 5.5 2.9 8 7.8 8 3.5 0 6.3-2.1 6.8-4.1h7.6c-2.4 7.5-7.6 10.6-14.8 10.6-10 0-16.1-6.8-16.1-16.6 0-9.5 6.5-16.7 16.1-16.7 10.7 0 15.9 9 15.3 18.8h-22.7zm14.1-5.6c-.8-4.4-2.7-6.7-6.9-6.7-5.5 0-7.1 4.3-7.2 6.7h14.1zM317.4 67.7h-5.2v-5.8h5.2v-2.4c0-5.6 3.5-9.6 10.6-9.6 1.5 0 3.1.2 4.6.2v6.5c-1-.1-2.1-.2-3.2-.2-2.3 0-3.3 1-3.3 3.6v1.9h6v5.8h-6v25.8h-8.7V67.7z"/></svg>