<?xml version="1.0" encoding="utf-8"?>
<!-- Generator: Adobe Illustrator 19.2.0, SVG Export Plug-In . SVG Version: 6.00 Build 0)  -->
<svg version="1.1" id="Layer_1" xmlns="http://www.w3.org/2000/svg" xmlns:xlink="http://www.w3.org/1999/xlink" x="0px" y="0px"
	 viewBox="0 0 397 115" style="enable-background:new 0 0 397 115;" xml:space="preserve">
<style type="text/css">
	.st0{fill:none;}
	.st1{fill:#FFFFFF;}
	.st2{enable-background:new    ;}
	.st3{fill:#4F5857;}
</style>
<rect x="42.2" y="33.2" class="st0" width="312.5" height="48.5"/>
<rect class="st1" width="397" height="115"/>
<g class="st2">
	<path class="st3" d="M67.8,82.5c-3.6,0-6.8-0.6-9.6-1.7c-2.7-1.1-5-2.7-6.8-4.6c-1.8-2-3.1-4.3-4-7c-0.9-2.7-1.3-5.5-1.3-8.6
		c0-2.6,0.4-5.1,1.3-7.7c0.9-2.6,2.2-5,4.1-7.1c1.9-2.1,4.2-3.8,7.2-5.1c2.9-1.3,6.4-2,10.4-2c2.2,0,4.3,0.2,6.2,0.5
		c1.9,0.3,4,0.8,6.3,1.4c0.1,1.2,0.3,2.7,0.5,4.5c0.3,1.8,0.6,3.6,1.1,5.3c-0.2,0-0.5,0.1-0.8,0.2c-0.3,0.1-0.6,0.1-0.8,0.1
		c-0.3,0-0.6-0.1-0.9-0.2c-0.2-0.1-0.4-0.3-0.5-0.7c-0.5-1.4-1-2.6-1.6-3.6c-0.6-1-1.3-1.8-2.2-2.3c-0.8-0.6-1.8-1-3-1.3
		c-1.1-0.3-2.4-0.4-4-0.4c-2.3,0-4.4,0.4-6.2,1.2c-1.8,0.8-3.3,2-4.5,3.4c-1.2,1.5-2.1,3.3-2.8,5.4c-0.6,2.1-0.9,4.5-0.9,7.1
		c0,2.8,0.4,5.4,1.1,7.9c0.8,2.4,1.8,4.5,3.1,6.3c1.3,1.8,2.9,3.2,4.7,4.2c1.8,1,3.8,1.5,5.9,1.5c1.7,0,3.2-0.2,4.5-0.5
		c1.2-0.3,2.3-0.8,3.2-1.5c0.9-0.7,1.6-1.5,2.3-2.6c0.6-1,1.2-2.3,1.7-3.6c0.1-0.3,0.3-0.6,0.6-0.7c0.3-0.2,0.6-0.2,0.9-0.2
		c0.2,0,0.5,0,0.8,0.1c0.3,0.1,0.6,0.1,0.8,0.2c-0.3,0.7-0.5,1.6-0.8,2.5c-0.3,0.9-0.6,1.9-0.9,2.9c-0.3,1-0.6,1.9-0.8,2.9
		c-0.2,1-0.4,1.9-0.6,2.8c-2.1,0.4-4.3,0.7-6.5,0.8S70.4,82.5,67.8,82.5z"/>
	<path class="st3" d="M107.7,53.1c1.3,0,2.2,0.3,2.8,1s0.9,1.5,0.9,2.5c0,0.3-0.1,0.6-0.2,0.8c-0.1,0.2-0.3,0.5-0.7,0.7
		c-0.4,0.3-0.9,0.6-1.5,0.9c-0.7,0.3-1.5,0.7-2.5,1.2c-0.7-0.7-1.3-1.2-1.9-1.4c-0.6-0.2-1.2-0.4-1.7-0.4c-0.5,0-1,0.1-1.5,0.3
		c-0.5,0.2-0.9,0.5-1.3,1c-0.4,0.5-0.7,1.2-0.9,2c-0.2,0.8-0.4,1.9-0.4,3.2v12.1c0,0.9,0.3,1.5,1,1.9c0.7,0.4,2.1,0.8,4.1,1.1
		c0.5,0.1,0.7,0.4,0.7,0.8c0,0.6,0,1-0.1,1.2c-0.6,0-1.3-0.1-2.1-0.1c-0.8,0-1.7-0.1-2.6-0.1c-0.9,0-1.8-0.1-2.7-0.1
		c-0.9,0-1.7,0-2.4,0c-1.6,0-3.1,0-4.2,0.1c-1.2,0.1-2.3,0.1-3.3,0.2c-0.1-0.2-0.1-0.6-0.1-1.2c0-0.5,0.2-0.8,0.7-0.8
		c1.4-0.3,2.3-0.5,2.9-0.8c0.5-0.3,0.8-0.8,0.8-1.4V60.2c0-1-0.2-1.8-0.6-2.4c-0.4-0.6-1.4-1-3.1-1.2c-0.6-0.1-0.9-0.4-0.9-1
		c0-0.1,0-0.3,0-0.5c0-0.2,0-0.4,0.1-0.5c0.3,0,0.6,0,1.1,0c0.5,0,1,0,1.6-0.1c0.6,0,1.1-0.1,1.7-0.1c0.6,0,1.1-0.1,1.5-0.2
		c1-0.1,1.9-0.3,3-0.5c1-0.2,1.7-0.3,2-0.3c0.6,0,0.9,0.3,0.9,1v3.5c1.5-1.6,3-2.8,4.4-3.6C104.5,53.5,106.1,53.1,107.7,53.1z"/>
	<path class="st3" d="M112.1,67.8c0-2.1,0.4-4.1,1.1-5.9c0.8-1.8,1.8-3.4,3.2-4.7c1.3-1.3,2.9-2.3,4.8-3.1c1.9-0.7,3.9-1.1,6.1-1.1
		c2.3,0,4.4,0.4,6.2,1.1c1.9,0.7,3.5,1.8,4.8,3.1c1.3,1.3,2.4,2.9,3.1,4.7c0.7,1.8,1.1,3.8,1.1,5.9c0,2.1-0.4,4.1-1.1,5.9
		c-0.8,1.8-1.8,3.3-3.2,4.6s-3,2.3-4.8,3.1s-3.9,1.1-6.1,1.1c-2.3,0-4.4-0.4-6.2-1.1c-1.9-0.7-3.5-1.8-4.8-3.1
		c-1.3-1.3-2.3-2.8-3.1-4.6C112.5,71.9,112.1,69.9,112.1,67.8z M120.3,66.5c0,4,0.7,7.2,2,9.6c1.3,2.4,3.2,3.6,5.7,3.6
		c2.3,0,3.9-0.9,4.9-2.8c1-1.8,1.5-4.4,1.5-7.8c0-3.9-0.7-7.1-2-9.6c-1.3-2.4-3.2-3.6-5.7-3.6c-2.3,0-3.9,0.9-4.9,2.8
		C120.8,60.6,120.3,63.2,120.3,66.5z"/>
	<path class="st3" d="M163.6,61.7c-0.6,0-1-0.3-1-0.7c-0.3-1.8-1-3.1-2.1-3.9c-1.1-0.8-2.4-1.2-4.1-1.2c-1.5,0-2.6,0.4-3.4,1.1
		c-0.8,0.7-1.2,1.6-1.2,2.6c0,0.5,0.1,0.9,0.2,1.3c0.1,0.4,0.4,0.8,0.8,1.1c0.4,0.3,1,0.7,1.7,1c0.7,0.3,1.7,0.7,3,1.1
		c1.5,0.4,2.8,0.9,3.9,1.4c1.1,0.5,2.1,1.1,2.9,1.8s1.4,1.5,1.8,2.5c0.4,1,0.6,2.1,0.6,3.5c0,1.3-0.2,2.4-0.6,3.6
		c-0.4,1.1-1.1,2.1-2,3c-0.9,0.8-2.1,1.5-3.4,2c-1.4,0.5-3.1,0.7-5,0.7c-1.4,0-3-0.2-4.8-0.5c-1.8-0.3-3.4-0.8-4.9-1.6
		c-0.1-1.1-0.2-2.3-0.2-3.6c-0.1-1.3-0.1-2.5-0.1-3.8h0.8c0.5,0,0.9,0.1,1.2,0.2c0.3,0.2,0.5,0.4,0.6,0.7c0.2,1.8,0.9,3.2,2.1,4.2
		c1.3,1,3,1.5,5.2,1.5c1.5,0,2.8-0.3,3.7-1c1-0.7,1.4-1.6,1.4-2.7c0-1-0.4-1.9-1.3-2.7c-0.8-0.7-2.4-1.5-4.8-2.1
		c-3.2-0.9-5.4-2.1-6.7-3.6s-1.9-3.3-1.9-5.4c0-2.7,0.9-4.9,2.8-6.6c1.8-1.6,4.2-2.5,7.2-2.5c1.7,0,3.3,0.2,4.9,0.6
		c1.6,0.4,2.8,0.9,3.8,1.3c0,0.3,0.1,0.8,0.1,1.4c0,0.6,0.1,1.2,0.1,1.9c0,0.7,0.1,1.3,0.1,2c0,0.6,0,1.2,0,1.6L163.6,61.7z"/>
	<path class="st3" d="M187.6,61.7c-0.6,0-1-0.3-1-0.7c-0.3-1.8-1-3.1-2.1-3.9c-1.1-0.8-2.4-1.2-4.1-1.2c-1.5,0-2.6,0.4-3.4,1.1
		c-0.8,0.7-1.2,1.6-1.2,2.6c0,0.5,0.1,0.9,0.2,1.3c0.1,0.4,0.4,0.8,0.8,1.1c0.4,0.3,1,0.7,1.7,1c0.7,0.3,1.7,0.7,3,1.1
		c1.5,0.4,2.8,0.9,3.9,1.4c1.1,0.5,2.1,1.1,2.9,1.8s1.4,1.5,1.8,2.5c0.4,1,0.6,2.1,0.6,3.5c0,1.3-0.2,2.4-0.6,3.6
		c-0.4,1.1-1.1,2.1-2,3c-0.9,0.8-2.1,1.5-3.4,2c-1.4,0.5-3.1,0.7-5,0.7c-1.4,0-3-0.2-4.8-0.5c-1.8-0.3-3.4-0.8-4.9-1.6
		c-0.1-1.1-0.2-2.3-0.2-3.6c-0.1-1.3-0.1-2.5-0.1-3.8h0.8c0.5,0,0.9,0.1,1.2,0.2c0.3,0.2,0.5,0.4,0.6,0.7c0.2,1.8,0.9,3.2,2.1,4.2
		c1.3,1,3,1.5,5.2,1.5c1.5,0,2.8-0.3,3.7-1c1-0.7,1.4-1.6,1.4-2.7c0-1-0.4-1.9-1.3-2.7c-0.8-0.7-2.4-1.5-4.8-2.1
		c-3.2-0.9-5.4-2.1-6.7-3.6s-1.9-3.3-1.9-5.4c0-2.7,0.9-4.9,2.8-6.6c1.8-1.6,4.2-2.5,7.2-2.5c1.7,0,3.3,0.2,4.9,0.6
		c1.6,0.4,2.8,0.9,3.8,1.3c0,0.3,0.1,0.8,0.1,1.4c0,0.6,0.1,1.2,0.1,1.9c0,0.7,0.1,1.3,0.1,2c0,0.6,0,1.2,0,1.6L187.6,61.7z"/>
	<path class="st3" d="M233.9,40.7c0.2-0.4,0.5-0.7,0.8-0.9c0.4-0.2,1.3-0.3,2.9-0.3c0.3,0,0.9,0,1.5,0c0.7,0,1.4,0,2.2-0.1
		c0.8,0,1.6-0.1,2.3-0.1c0.8,0,1.5-0.1,2-0.1c0.1,0.2,0.1,0.4,0.1,0.7s0,0.4,0,0.5c0,0.7-0.2,1.1-0.7,1.2c-0.9,0.1-1.5,0.3-2,0.4
		c-0.5,0.1-0.9,0.3-1.1,0.5c-0.3,0.2-0.4,0.4-0.5,0.7c-0.1,0.3-0.1,0.6-0.1,0.9c0,0.1,0,0.9,0.1,2.5c0.1,1.6,0.2,3.5,0.3,5.8
		c0.1,2.3,0.3,4.8,0.4,7.5c0.1,2.7,0.3,5.2,0.4,7.6c0.1,2.4,0.2,4.5,0.3,6.3c0.1,1.8,0.2,2.9,0.2,3.2c0,0.4,0.1,0.8,0.2,1.1
		c0.1,0.3,0.3,0.5,0.6,0.7c0.3,0.2,0.7,0.4,1.2,0.6c0.5,0.2,1.2,0.3,2,0.4c0.5,0.1,0.7,0.5,0.7,1.2c0,0.3,0,0.7-0.1,1.1
		c-1.5-0.1-2.9-0.2-4.1-0.2c-1.2-0.1-2.6-0.1-4.2-0.1c-1.4,0-3,0-4.6,0.1c-1.6,0.1-3,0.1-4.1,0.2c-0.1-0.4-0.1-0.8-0.1-1.1
		c0-0.5,0.1-0.8,0.2-1c0.2-0.2,0.3-0.3,0.4-0.3c1.8-0.3,2.9-0.7,3.4-1.1c0.5-0.4,0.8-1,0.8-1.9c0-0.1,0-0.8-0.1-2.1
		s-0.1-2.8-0.2-4.7c-0.1-1.9-0.2-3.9-0.3-6c-0.1-2.2-0.2-4.2-0.3-6.1c-0.1-1.9-0.2-3.6-0.3-4.9c-0.1-1.4-0.1-2.2-0.2-2.5l-13.3,31
		c-0.2,0.4-0.4,0.7-0.6,0.9c-0.2,0.2-0.4,0.3-0.6,0.3c-0.1,0-0.2,0-0.4,0s-0.3,0-0.4-0.1l-15.1-36.1c0,0.6-0.1,1.7-0.2,3.4
		c-0.1,1.7-0.2,3.7-0.3,5.9s-0.2,4.5-0.3,7c-0.1,2.4-0.2,4.7-0.3,6.8s-0.2,3.8-0.2,5.2c-0.1,1.4-0.1,2.2-0.1,2.3c0,0.4,0,0.7,0.1,1
		c0.1,0.3,0.3,0.5,0.5,0.7s0.7,0.4,1.2,0.6c0.5,0.2,1.2,0.3,2.1,0.5c0.5,0.1,0.7,0.5,0.7,1.2c0,0.1,0,0.3,0,0.5
		c0,0.2-0.1,0.4-0.1,0.6c-1.2-0.1-2.3-0.2-3.2-0.2c-1-0.1-2-0.1-3-0.1c-0.9,0-2,0-3.2,0.1c-1.3,0.1-2.5,0.1-3.5,0.2
		c-0.1-0.2-0.1-0.4-0.1-0.6s0-0.4,0-0.5c0-0.5,0.1-0.8,0.2-0.9c0.1-0.2,0.3-0.2,0.5-0.3c1.3-0.3,2.3-0.7,2.9-1c0.6-0.4,1-1,1-1.8
		c0-0.3,0-1.4,0.1-3.2c0.1-1.8,0.2-3.8,0.3-6.2c0.1-2.4,0.3-5,0.4-7.7c0.1-2.7,0.2-5.2,0.4-7.5c0.1-2.3,0.2-4.3,0.3-5.8
		c0.1-1.6,0.1-2.4,0.1-2.5c0-0.7-0.2-1.3-0.7-1.6c-0.5-0.3-1.5-0.6-3.1-0.9c-0.5,0-0.7-0.5-0.7-1.2c0-0.1,0-0.3,0-0.5s0-0.4,0.1-0.7
		c0.6,0,1.3,0.1,2.3,0.1c1,0,2,0.1,3.1,0.1c1,0,2,0,2.9,0.1c0.9,0,1.6,0,2,0c0.8,0,1.4,0,1.8,0.1c0.4,0.1,0.8,0.1,1,0.2
		s0.4,0.2,0.6,0.4c0.1,0.2,0.2,0.3,0.3,0.5l12.1,29.2L233.9,40.7z"/>
	<path class="st3" d="M278.3,79.7c0.6,0,1,0.5,1,1.6c-0.6,0.4-1.3,0.7-2.1,0.9c-0.8,0.2-1.7,0.3-2.6,0.3c-2,0-3.4-0.5-4.5-1.4
		c-1-1-1.6-2.1-1.8-3.3c-0.9,1.7-2,3-3.5,3.7c-1.5,0.7-3.2,1.1-5.1,1.1c-0.9,0-1.9-0.1-3-0.2c-1.1-0.2-2.1-0.5-3.1-0.9
		c-0.9-0.5-1.7-1.1-2.4-2c-0.7-0.9-1-2-1-3.4c0-1.6,0.4-3,1.2-4.1c0.8-1.1,1.9-2.1,3.1-2.8c1.2-0.8,2.6-1.4,4.1-1.8
		c1.5-0.5,2.9-0.8,4.2-1.1c0.6-0.1,1.1-0.3,1.8-0.4c0.6-0.2,1.1-0.3,1.4-0.4c0.5-0.1,0.8-0.3,0.9-0.6c0.1-0.2,0.2-0.9,0.2-1.9
		c0-2.2-0.3-3.9-1-5.1c-0.7-1.2-1.8-1.8-3.3-1.8c-1.3,0-2.2,0.4-2.7,1.2c-0.5,0.8-1.1,2-1.5,3.7c-0.1,0.5-0.5,0.8-1.1,1.1
		c-0.6,0.2-1.4,0.5-2.4,0.7c-0.5,0.1-1.1,0.2-1.6,0.3c-0.5,0.1-1,0.1-1.5,0.1c-0.3,0-0.4-0.1-0.5-0.3c-0.1-0.2-0.1-0.6-0.1-1.1
		c0-1.1,0.4-2.1,1.2-3.2c0.8-1,1.8-2,3-2.8c1.2-0.8,2.5-1.4,4-1.9c1.5-0.5,2.8-0.7,4.2-0.7c1.6,0,3.1,0.1,4.4,0.4
		c1.3,0.3,2.4,0.8,3.3,1.5c0.9,0.7,1.7,1.7,2.2,2.9c0.5,1.2,0.8,2.7,0.8,4.6v11.4c0,1.5,0,2.6,0.1,3.3c0.1,0.7,0.2,1.2,0.4,1.6
		c0.4,0.8,1,1.2,1.8,1.2c0.3,0,0.6,0,0.9-0.1C277.9,79.7,278.1,79.7,278.3,79.7z M267.1,67.5l-1.4,0.3c-1,0.2-1.9,0.4-2.8,0.7
		c-0.9,0.3-1.6,0.8-2.2,1.3s-1.1,1.2-1.5,2c-0.4,0.8-0.6,1.8-0.6,2.9c0,1.7,0.3,2.9,0.8,3.5c0.5,0.7,1.3,1,2.4,1
		c1.6,0,2.9-0.6,3.9-1.8c1-1.2,1.4-2.9,1.4-5.1V67.5z"/>
	<path class="st3" d="M300.7,53.1c1.3,0,2.2,0.3,2.8,1s0.9,1.5,0.9,2.5c0,0.3-0.1,0.6-0.2,0.8c-0.1,0.2-0.3,0.5-0.7,0.7
		c-0.4,0.3-0.9,0.6-1.5,0.9c-0.7,0.3-1.5,0.7-2.5,1.2c-0.7-0.7-1.3-1.2-1.9-1.4c-0.6-0.2-1.2-0.4-1.7-0.4c-0.5,0-1,0.1-1.5,0.3
		c-0.5,0.2-0.9,0.5-1.3,1c-0.4,0.5-0.7,1.2-0.9,2c-0.2,0.8-0.4,1.9-0.4,3.2v12.1c0,0.9,0.3,1.5,1,1.9c0.7,0.4,2.1,0.8,4.1,1.1
		c0.5,0.1,0.7,0.4,0.7,0.8c0,0.6,0,1-0.1,1.2c-0.6,0-1.3-0.1-2.1-0.1c-0.8,0-1.7-0.1-2.6-0.1c-0.9,0-1.8-0.1-2.7-0.1
		c-0.9,0-1.7,0-2.4,0c-1.6,0-3.1,0-4.2,0.1c-1.2,0.1-2.3,0.1-3.3,0.2c-0.1-0.2-0.1-0.6-0.1-1.2c0-0.5,0.2-0.8,0.7-0.8
		c1.4-0.3,2.3-0.5,2.9-0.8c0.5-0.3,0.8-0.8,0.8-1.4V60.2c0-1-0.2-1.8-0.6-2.4c-0.4-0.6-1.4-1-3.1-1.2c-0.6-0.1-0.9-0.4-0.9-1
		c0-0.1,0-0.3,0-0.5c0-0.2,0-0.4,0.1-0.5c0.3,0,0.6,0,1.1,0c0.5,0,1,0,1.6-0.1c0.6,0,1.1-0.1,1.7-0.1c0.6,0,1.1-0.1,1.5-0.2
		c1-0.1,1.9-0.3,3-0.5c1-0.2,1.7-0.3,2-0.3c0.6,0,0.9,0.3,0.9,1v3.5c1.5-1.6,3-2.8,4.4-3.6C297.5,53.5,299,53.1,300.7,53.1z"/>
	<path class="st3" d="M316.7,77.7c0,0.6,0.2,1.1,0.5,1.3c0.3,0.3,1.1,0.6,2.4,0.9c0.2,0,0.3,0.1,0.5,0.2c0.2,0.1,0.2,0.3,0.2,0.6
		c0,0.3,0,0.5,0,0.7c0,0.2-0.1,0.4-0.1,0.6c-1.2-0.1-2.3-0.2-3.4-0.2c-1.1-0.1-2.3-0.1-3.8-0.1c-1.7,0-3.1,0-4.4,0.1
		c-1.2,0.1-2.4,0.1-3.5,0.2c0-0.2-0.1-0.4-0.1-0.6c0-0.2,0-0.4,0-0.7c0-0.3,0.1-0.5,0.2-0.6c0.2-0.1,0.3-0.2,0.5-0.2
		c1.1-0.2,2-0.5,2.7-0.8s1-0.8,1-1.5V43.6c0-1.3-0.2-2.3-0.7-3c-0.5-0.7-1.5-1.1-3-1.2c-0.6-0.1-0.8-0.5-0.8-1c0-0.1,0-0.3,0-0.5
		s0-0.4,0.1-0.5c0.3,0,0.6,0,1.1,0c0.5,0,1,0,1.6-0.1c0.6,0,1.1-0.1,1.7-0.1c0.6,0,1.1-0.1,1.6-0.1c1.1-0.1,2.1-0.3,3.1-0.5
		c1-0.2,1.7-0.3,2-0.3c0.7,0,1,0.3,1,1c0,0.5-0.1,1.1-0.2,1.9c-0.1,0.8-0.2,1.8-0.2,3.2v23.3l9.5-8c0.3-0.3,0.5-0.5,0.5-0.8
		c0-0.6-0.7-1-2.2-1.1c-0.5,0-0.8-0.4-0.8-1c0-0.3,0-0.7,0.1-1c2.1,0.1,4.2,0.2,6.3,0.2c1,0,2,0,2.9,0c0.9,0,1.9-0.1,3-0.2
		c0,0.2,0.1,0.4,0.1,0.6c0,0.2,0.1,0.3,0.1,0.5c0,0.6-0.3,1-0.9,1c-1.2,0.1-2.1,0.3-2.7,0.6s-1.1,0.5-1.6,0.9l-7.6,6.6l9.9,13.6
		c0.6,0.9,1.3,1.5,2,1.9c0.7,0.3,1.4,0.6,2.2,0.7c0.5,0.1,0.7,0.4,0.7,0.8c0,0.1,0,0.3,0,0.6c0,0.3-0.1,0.5-0.2,0.7
		c-1.6,0-3.3-0.1-5-0.1c-1.7,0-3.5,0-5.4,0L317,67.3h-0.3V77.7z"/>
</g>
</svg>
